<svg width="375" height="600" viewBox="0 0 375 600" fill="none" xmlns="http://www.w3.org/2000/svg">
<path d="M334.166 136.634V42.9664C334.166 18.9664 315.5 0.799988 291.5 0.799988H84.1664C60.1664 0.799988 40 19.0496 40 42.9664V79.1328H37.5V101.633H40V122.466H37.5V164.966H40V177.466H37.5V219.966H40V554.466C40 578.466 60.2504 599.133 84.1664 599.133H291.5C315.5 599.133 334.166 578.466 334.166 554.466V205.8H337.5V136.634H334.166ZM222.75 19.5496C222.75 20.2747 222.535 20.9836 222.132 21.5865C221.729 22.1895 221.156 22.6594 220.486 22.9369C219.816 23.2144 219.079 23.287 218.368 23.1455C217.657 23.0041 217.003 22.6549 216.491 22.1421C215.978 21.6294 215.629 20.9761 215.487 20.2649C215.346 19.5537 215.418 18.8165 215.696 18.1465C215.973 17.4766 216.443 16.904 217.046 16.5011C217.649 16.0982 218.358 15.8832 219.083 15.8832C220.053 15.8917 220.981 16.2808 221.666 16.9665C222.352 17.6523 222.741 18.5798 222.75 19.5496ZM173.166 19.1328H205.666C207.083 19.1328 208.166 19.9664 208.166 21.2128C208.166 22.4592 207.083 23.2928 205.666 23.2928H173.166C171.75 23.2928 170.666 22.4592 170.666 21.2128C170.666 19.9664 171.75 19.1336 173.166 19.1336V19.1328ZM318.334 552.55C318.334 567.133 307.584 579.966 293 579.966H85.5C70.9168 579.966 58.3336 567.133 58.3336 552.55V41.4664C58.3336 26.9664 71 16.6328 85.5 16.6328H109.5C114.583 16.6328 116.417 15.8824 116.75 22.2992C116.872 25.278 118.054 28.1153 120.084 30.2992C122.206 32.5726 124.874 34.2653 127.834 35.216C129.972 36.0214 132.22 36.4991 134.501 36.6328H244.083C246.334 36.6328 248.666 35.716 250.75 35.0496C253.693 34.1463 256.359 32.5123 258.5 30.3C260.573 28.2118 261.766 25.4081 261.834 22.4664C262.167 16.0496 264 16.5464 269.084 16.5464H292.834C307.418 16.5464 318.168 26.88 318.168 41.38V552.55H318.334Z" fill="#404040"/>
<path d="M205.666 19.1336H173.166C171.75 19.1336 170.666 19.9672 170.666 21.2136C170.666 22.46 171.75 23.2936 173.166 23.2936H205.666C207.083 23.2936 208.166 22.46 208.166 21.2136C208.166 19.9672 207 19.1336 205.666 19.1336Z" fill="#F2F2F2"/>
<path d="M219.083 23.216C221.108 23.216 222.75 21.5745 222.75 19.5496C222.75 17.5247 221.108 15.8832 219.083 15.8832C217.058 15.8832 215.417 17.5247 215.417 19.5496C215.417 21.5745 217.058 23.216 219.083 23.216Z" fill="#F2F2F2"/>
</svg>
