<?xml version="1.0" standalone="no"?>
<!DOCTYPE svg PUBLIC "-//W3C//DTD SVG 1.1//EN" "http://www.w3.org/Graphics/SVG/1.1/DTD/svg11.dtd" >
<svg xmlns="http://www.w3.org/2000/svg">
<metadata>Generated by IcoMoon</metadata>
<defs>
<font id="Developix" horiz-adv-x="1024">
<font-face units-per-em="1024" ascent="960" descent="-64" />
<missing-glyph horiz-adv-x="1024" />
<glyph unicode="&#x20;" horiz-adv-x="512" d="" />
<glyph unicode="&#xe900;" glyph-name="chevron-up" d="M798.165 328.832l-256 256c-16.683 16.683-43.691 16.683-60.331 0l-256-256c-16.683-16.683-16.683-43.691 0-60.331s43.691-16.683 60.331 0l225.835 225.835 225.835-225.835c16.683-16.683 43.691-16.683 60.331 0s16.683 43.691 0 60.331z" />
<glyph unicode="&#xe901;" glyph-name="maximize" d="M341.333 832.001h-128c-35.328 0-67.413-14.379-90.496-37.504s-37.504-55.168-37.504-90.496v-128c0-23.552 19.115-42.667 42.667-42.667s42.667 19.115 42.667 42.667v128c0 11.776 4.736 22.4 12.501 30.165s18.389 12.501 30.165 12.501h128c23.552 0 42.667 19.115 42.667 42.667s-19.115 42.667-42.667 42.667zM938.667 576.001v128c0 35.328-14.379 67.413-37.504 90.496s-55.168 37.504-90.496 37.504h-128c-23.552 0-42.667-19.115-42.667-42.667s19.115-42.667 42.667-42.667h128c11.776 0 22.4-4.736 30.165-12.501s12.501-18.389 12.501-30.165v-128c0-23.552 19.115-42.667 42.667-42.667s42.667 19.115 42.667 42.667zM682.667-21.333h128c35.328 0 67.413 14.379 90.496 37.504s37.504 55.168 37.504 90.496v128c0 23.552-19.115 42.667-42.667 42.667s-42.667-19.115-42.667-42.667v-128c0-11.776-4.736-22.4-12.501-30.165s-18.389-12.501-30.165-12.501h-128c-23.552 0-42.667-19.115-42.667-42.667s19.115-42.667 42.667-42.667zM85.333 234.667v-128c0-35.328 14.379-67.413 37.504-90.496s55.168-37.504 90.496-37.504h128c23.552 0 42.667 19.115 42.667 42.667s-19.115 42.667-42.667 42.667h-128c-11.776 0-22.4 4.736-30.165 12.501s-12.501 18.389-12.501 30.165v128c0 23.552-19.115 42.667-42.667 42.667s-42.667-19.115-42.667-42.667z" />
<glyph unicode="&#xe902;" glyph-name="minimize" d="M298.667 789.334v-128c0-11.776-4.736-22.4-12.501-30.165s-18.389-12.501-30.165-12.501h-128c-23.552 0-42.667-19.115-42.667-42.667s19.115-42.667 42.667-42.667h128c35.328 0 67.413 14.379 90.496 37.504s37.504 55.168 37.504 90.496v128c0 23.552-19.115 42.667-42.667 42.667s-42.667-19.115-42.667-42.667zM896 618.667h-128c-11.776 0-22.4 4.736-30.165 12.501s-12.501 18.389-12.501 30.165v128c0 23.552-19.115 42.667-42.667 42.667s-42.667-19.115-42.667-42.667v-128c0-35.328 14.379-67.413 37.504-90.496s55.168-37.504 90.496-37.504h128c23.552 0 42.667 19.115 42.667 42.667s-19.115 42.667-42.667 42.667zM725.333 21.334v128c0 11.776 4.736 22.4 12.501 30.165s18.389 12.501 30.165 12.501h128c23.552 0 42.667 19.115 42.667 42.667s-19.115 42.667-42.667 42.667h-128c-35.328 0-67.413-14.379-90.496-37.504s-37.504-55.168-37.504-90.496v-128c0-23.552 19.115-42.667 42.667-42.667s42.667 19.115 42.667 42.667zM128 192.001h128c11.776 0 22.4-4.736 30.165-12.501s12.501-18.389 12.501-30.165v-128c0-23.552 19.115-42.667 42.667-42.667s42.667 19.115 42.667 42.667v128c0 35.328-14.379 67.413-37.504 90.496s-55.168 37.504-90.496 37.504h-128c-23.552 0-42.667-19.115-42.667-42.667s19.115-42.667 42.667-42.667z" />
<glyph unicode="&#xe903;" glyph-name="star" d="M550.272 850.902c-3.925 8.064-10.581 15.019-19.371 19.371-21.12 10.411-46.72 1.749-57.131-19.371l-121.941-246.997-272.683-39.893c-8.875-1.237-17.536-5.419-24.363-12.416-16.469-16.896-16.085-43.904 0.768-60.331l197.248-192.128-46.549-271.445c-1.536-8.832-0.256-18.389 4.309-27.051 10.965-20.864 36.779-28.885 57.643-17.92l243.797 128.213 243.84-128.213c7.936-4.224 17.408-5.931 27.051-4.309 23.211 3.968 38.827 26.027 34.859 49.28l-46.549 271.445 197.248 192.128c6.443 6.229 11.051 14.677 12.459 24.405 3.413 23.296-12.715 44.971-36.053 48.384l-272.64 39.851zM512 735.617l93.568-189.611c6.443-13.013 18.603-21.291 32.085-23.339l209.323-30.592-151.424-147.499c-10.411-10.155-14.549-24.277-12.288-37.76l35.712-208.341-187.136 98.432c-12.843 6.741-27.605 6.315-39.723 0l-187.136-98.432 35.712 208.341c2.475 14.336-2.517 28.203-12.288 37.76l-151.424 147.499 209.365 30.635c14.336 2.091 25.984 11.093 32.085 23.296z" />
<glyph unicode="&#xe904;" glyph-name="wordpress" d="M72.571 417.524c0 63.429 13.714 124 38.286 178.857l209.714-574.286c-146.857 71.429-248 221.714-248 395.429zM808.571 439.81c0-37.714-15.429-81.143-33.714-142.286l-43.429-146.286-158.857 472s26.286 1.714 50.286 4.571c23.429 2.857 20.571 37.714-2.857 36-71.429-5.143-117.143-5.714-117.143-5.714s-42.857 0.571-115.429 5.714c-24 1.714-26.857-34.286-2.857-36 22.286-2.286 45.714-4.571 45.714-4.571l68.571-187.429-96-288-160 475.429s26.286 1.714 50.286 4.571c23.429 2.857 20.571 37.714-2.857 36-70.857-5.143-117.143-5.714-117.143-5.714-8 0-17.714 0.571-28 0.571 78.286 119.429 213.143 198.286 366.857 198.286 114.286 0 218.286-44 296.571-115.429h-5.714c-42.857 0-73.714-37.143-73.714-77.714 0-36 21.143-66.286 43.429-102.857 17.143-29.143 36-66.857 36-121.143zM519.429 379.238l135.429-369.714c0.571-2.286 1.714-4.571 2.857-6.286-45.714-16-94.286-25.143-145.714-25.143-42.857 0-84.571 6.286-124 18.286zM897.143 628.381c34.286-62.857 54.286-134.286 54.286-210.857 0-162.286-88-303.429-218.857-379.429l134.286 387.429c22.286 64 33.714 113.143 33.714 157.714 0 16-1.143 30.857-3.429 45.143zM512 929.524c282.286 0 512-229.714 512-512s-229.714-512-512-512-512 229.714-512 512 229.714 512 512 512zM512-71.047c269.143 0 488.571 219.429 488.571 488.571s-219.429 488.571-488.571 488.571-488.571-219.429-488.571-488.571 219.429-488.571 488.571-488.571z" />
<glyph unicode="&#xe905;" glyph-name="aperture" d="M487.339 618.667l94.848 164.267c77.867-14.379 147.499-52.267 201.344-106.069 17.749-17.749 33.792-37.248 47.829-58.197h-221.611zM314.88 490.667l-94.805 164.139c6.528 7.637 13.312 14.976 20.395 22.059 64 64 150.4 105.472 246.4 111.659l-110.592-191.573zM339.541 277.334h-189.696c-14.165 40.021-21.845 83.115-21.845 128 0 61.013 14.208 118.656 39.509 169.899l110.933-192.171zM745.515 427.606l-61.056 105.728h189.696c14.165-40.021 21.845-83.115 21.845-128 0-61.013-14.208-118.656-39.509-169.899l-109.909 190.379zM537.088 22.145l172.032 297.856 94.805-164.181c-6.528-7.595-13.312-14.976-20.395-22.016-64-64-150.4-105.472-246.4-111.659zM456.533-60.757c1.963-0.341 3.925-0.597 5.931-0.64 16.256-1.707 32.811-2.603 49.536-2.603 129.579 0 246.997 52.565 331.861 137.472 15.616 15.616 30.123 32.299 43.392 49.963 1.792 2.005 3.371 4.139 4.693 6.357 56.235 77.355 89.387 172.629 89.387 275.541 0 65.664-13.525 128.213-37.888 185.003-0.683 1.877-1.451 3.669-2.347 5.376-23.595 53.077-56.747 100.992-97.237 141.483-72.576 72.576-168.96 121.557-276.395 134.229-1.963 0.341-3.925 0.597-5.931 0.64-16.256 1.707-32.811 2.603-49.536 2.603-129.579 0-246.997-52.565-331.861-137.472-15.616-15.573-30.123-32.299-43.392-49.963-1.792-2.005-3.371-4.139-4.736-6.357-56.192-77.355-89.344-172.629-89.344-275.541 0-65.664 13.525-128.213 37.888-185.003 0.683-1.877 1.451-3.669 2.347-5.376 23.595-53.077 56.747-100.992 97.237-141.483 72.576-72.576 168.96-121.557 276.395-134.229zM536.661 192.001l-94.848-164.267c-77.867 14.379-147.499 52.267-201.344 106.069-17.749 17.749-33.792 37.248-47.829 58.197h221.611zM659.84 405.334l-73.899-128h-147.883l-73.899 128 73.899 128h147.883z" />
<glyph unicode="&#xe906;" glyph-name="linux-2" d="M922.14 116.48c-30.029 12.298-42.874 28.618-41.632 52.97 1.279 28.424-14.846 49.243-22.505 57.469 4.626 17.673 18.147 78.812 0.013 131.916-19.486 56.841-78.979 143.653-140.366 228.988-25.13 35.045-26.319 73.138-27.692 117.247-1.316 42.072-2.8 89.76-26.262 142.773-25.51 57.724-76.696 90.824-140.443 90.824-37.922 0-76.848-11.852-106.802-32.513-61.34-42.333-53.232-134.632-47.866-195.706 0.735-8.363 1.427-16.263 1.83-23.008 3.572-59.815 0.322-91.341-3.928-100.923-2.75-6.262-16.287-24.083-30.613-42.951-14.816-19.513-31.613-41.632-45.382-62.243-16.428-24.801-29.689-62.709-42.515-99.369-9.384-26.826-18.247-52.164-26.876-67.306-16.354-29.129-12.285-56.29-8.887-68.843-6.191-4.301-15.135-12.768-22.686-28.729-9.125-19.473-27.641-29.938-66.144-37.341-17.693-3.619-29.894-11.059-36.273-22.112-9.283-16.085-4.227-36.297 0.386-50.109 6.816-20.306 2.568-33.158-5.154-56.492-1.779-5.385-3.797-11.482-5.842-18.207-3.22-10.613-2.058-20.262 3.445-28.679 14.541-22.229 56.972-30.069 100.651-35.226 26.080-3.096 54.625-13.527 82.233-23.619 27.051-9.884 55.021-20.107 80.447-23.21 3.864-0.487 7.692-0.732 11.382-0.732 38.389 0 55.733 25.473 61.232 35.938 13.789 2.814 61.346 11.825 110.361 13.033 48.937 1.397 96.287-8.266 109.7-11.271 4.217-8.071 15.333-26.507 33.054-36.005 9.74-5.325 23.294-8.377 37.176-8.377 0.003 0 0 0 0.003 0 14.826 0 43.032 3.505 65.355 26.99 22.266 23.596 77.898 53.718 118.523 75.713 9.065 4.909 17.546 9.501 24.982 13.648 22.82 12.651 35.273 30.727 34.162 49.592-0.927 15.669-11.298 29.414-27.067 35.87zM416.952 121.023c-2.84 20.010-28.582 39.856-58.392 62.834-24.375 18.791-52.003 40.087-59.614 58.123-15.729 37.207-3.331 102.629 18.288 136.317 10.683 16.868 19.409 42.448 27.85 67.185 9.112 26.711 18.536 54.329 29.075 66.419 16.69 18.875 32.114 55.602 34.846 84.546 15.629-14.92 39.872-33.853 62.27-33.853 3.448 0 6.795 0.45 9.995 1.353 15.323 4.425 37.861 17.448 59.658 30.039 18.791 10.858 41.964 24.247 50.683 25.466 14.95-21.467 101.823-213.715 110.7-275.454 7.024-48.85-0.396-89.233-4.126-105.050-3.002 0.41-6.581 0.742-10.341 0.742-24.197 0-30.603-13.208-32.271-21.095-4.291-20.49-4.744-86.010-4.791-100.732-8.749-11.116-52.997-63.465-116.522-72.876-25.875-3.76-50.039-5.667-71.815-5.667-18.613 0-30.492 1.437-35.424 2.186l-31.922 36.525c12.587 6.215 25.17 19.329 21.853 42.991zM457.459 723.293c-0.997-0.43-1.978-0.89-2.941-1.38-0.097 2.162-0.322 4.355-0.668 6.554-3.485 20.060-16.787 34.621-31.623 34.621-1.098 0-2.202-0.084-3.414-0.269-8.827-1.471-15.75-8.101-19.543-17.502 3.327 20.628 15.014 35.901 28.88 35.901 16.283 0 30.039-21.944 30.039-47.917 0-3.273-0.238-6.53-0.729-10.008zM583.986 707.826c1.491 4.747 2.296 9.884 2.296 15.216 0 23.549-14.94 41.998-34.014 41.998-18.64 0-33.806-18.838-33.806-41.998 0-1.578 0.077-3.159 0.225-4.737-0.987 0.379-1.951 0.749-2.891 1.105-2.145 6.497-3.23 13.275-3.23 20.195 0 28.159 17.996 51.069 40.121 51.069 22.122 0 40.121-22.911 40.121-51.069 0-11.714-3.233-22.894-8.823-31.778zM567.672 653.019c-0.319-1.424-0.997-2.055-8.498-5.956-3.787-1.971-8.501-4.425-14.4-8.017l-3.942-2.387c-15.84-9.602-52.929-32.093-62.998-33.413-6.839-0.92-11.069 1.732-20.581 8.195-2.145 1.46-4.428 3.012-6.863 4.573-17.146 11.251-28.175 23.643-29.421 28.488 5.59 4.321 19.446 15.135 26.54 21.538 14.4 13.389 28.89 22.387 36.062 22.387 0.379 0 0.722-0.027 1.078-0.094 8.427-1.487 29.213-9.783 44.395-15.84 7.017-2.8 13.077-5.217 17.341-6.748 13.433-4.613 20.436-10.515 21.286-12.725zM688.361 27.301c7.578 34.182 16.307 80.682 14.893 108.095-0.326 6.228-0.876 13.007-1.41 19.56-0.997 12.255-2.478 30.468-0.95 35.87 0.302 0.141 0.638 0.262 1.011 0.366 0.064-15.672 3.468-46.933 28.467-57.835 7.45-3.25 15.964-4.895 25.305-4.895 25.043 0 52.829 12.285 64.21 23.666 6.701 6.701 12.338 14.9 16.287 21.393 0.863-2.528 1.393-5.832 1.115-10.089-1.487-23.116 9.747-53.782 31.126-65.083l3.112-1.635c7.615-3.995 27.84-14.615 28.165-19.651-0.003-0.003-0.171-0.594-1.299-1.642-5.066-4.63-22.897-13.735-40.141-22.542-30.589-15.619-65.261-33.322-80.833-49.7-21.924-23.072-46.722-38.57-61.696-38.57-1.803 0-3.445 0.228-4.905 0.692-16.263 5.070-29.649 28.535-22.458 61.998zM134.017 114.503c-1.659 7.762-2.968 13.89-1.561 19.825 1.021 4.398 22.733 9.112 32.006 11.123 13.037 2.83 26.52 5.755 35.337 11.106 11.922 7.222 18.378 20.541 24.073 32.291 4.123 8.498 8.38 17.284 13.446 20.168 0.285 0.168 0.722 0.363 1.554 0.363 9.491 0 29.407-19.953 40.883-37.811 2.911-4.502 8.303-13.524 14.541-23.968 18.657-31.217 44.204-73.974 57.546-88.303 12.023-12.882 31.486-37.65 26.698-58.892-3.505-16.481-22.166-29.884-26.567-32.849-1.598-0.363-3.576-0.547-5.902-0.547-25.536 0-76.085 21.246-103.243 32.661l-4.019 1.689c-15.165 6.359-39.923 10.364-63.864 14.239-19.050 3.085-45.137 7.306-49.461 11.12-3.505 3.932 0.561 16.713 4.146 27.991 2.582 8.105 5.248 16.485 6.708 25.258 2.072 13.994-0.366 25.385-2.32 34.538z" />
<glyph unicode="&#xe907;" glyph-name="codesandbox" d="M616.149 736.214l-104.149-60.16-104.149 60.16 82.603 47.189c4.779 2.731 9.899 4.48 15.147 5.291 9.301 1.451 18.987-0.128 27.904-5.291zM170.667 331.393l106.667-61.611v-120.747l-85.12 48.64c-4.736 2.773-8.832 6.315-12.16 10.453-5.931 7.339-9.387 16.469-9.387 26.539zM746.667 149.035v120.747l106.667 61.611v-96.725c-0.043-5.163-1.067-10.496-2.987-15.445-3.413-8.789-9.6-16.384-18.176-21.333zM809.003 626.006l-297.003-171.819-297.003 171.819 107.093 61.227 168.576-97.408c13.611-7.851 29.739-7.381 42.709 0l168.533 97.365zM491.776-62.335c6.016-3.243 12.928-5.077 20.224-5.077 7.381 0 14.336 1.877 20.395 5.163 15.189 2.475 29.909 7.68 43.392 15.36l136.448 77.995c9.301 1.835 17.536 6.699 23.637 13.483l138.624 79.232c26.368 15.232 45.227 38.272 55.424 64.597 5.675 14.592 8.619 30.165 8.747 46.251v341.333c0 20.395-4.821 39.723-13.397 56.917-0.939 3.029-2.219 5.973-3.883 8.832-1.963 3.371-4.267 6.357-6.912 8.96-1.323 1.835-2.731 3.669-4.139 5.419-9.813 12.203-21.845 22.528-35.456 30.507l-139.008 79.403c-6.272 7.125-14.635 11.776-23.595 13.525l-136.405 77.952c-26.027 15.019-55.467 19.84-83.371 15.531-15.488-2.432-30.507-7.637-44.245-15.488l-136.533-77.995c-8.96-1.749-17.323-6.4-23.595-13.483l-138.624-79.232c-16.341-9.429-29.824-21.888-40.149-36.267-2.56-2.56-4.864-5.547-6.784-8.832-1.664-2.901-2.987-5.888-3.925-8.96-1.707-3.413-3.243-6.955-4.608-10.496-5.632-14.635-8.576-30.208-8.704-45.995v-341.632c0.043-30.293 10.581-58.155 28.331-80.128 9.813-12.203 21.845-22.528 35.456-30.507l139.008-79.445c6.059-6.827 14.293-11.691 23.637-13.483l136.405-77.952c13.824-7.979 28.587-13.099 43.605-15.445zM469.333 380.289v-340.949l-106.667 60.928v194.133c0 15.701-8.491 29.44-21.333 36.949l-170.667 98.603v123.093zM554.667 39.339v340.949l298.667 172.757v-123.093l-170.667-98.603c-13.611-7.851-21.248-22.059-21.333-36.949v-194.133z" />
<glyph unicode="&#xe908;" glyph-name="command" d="M682.667 234.667h85.333c23.595 0 44.843-9.515 60.331-25.003s25.003-36.736 25.003-60.331-9.515-44.843-25.003-60.331-36.736-25.003-60.331-25.003-44.843 9.515-60.331 25.003-25.003 36.736-25.003 60.331zM341.333 234.667v-85.333c0-23.595-9.515-44.843-25.003-60.331s-36.736-25.003-60.331-25.003-44.843 9.515-60.331 25.003-25.003 36.736-25.003 60.331 9.515 44.843 25.003 60.331 36.736 25.003 60.331 25.003zM341.333 576.001h-85.333c-23.595 0-44.843 9.515-60.331 25.003s-25.003 36.736-25.003 60.331 9.515 44.843 25.003 60.331 36.736 25.003 60.331 25.003 44.843-9.515 60.331-25.003 25.003-36.736 25.003-60.331zM682.667 576.001h-341.333v-341.333h341.333zM768 746.667c23.595 0 44.843-9.515 60.331-25.003s25.003-36.736 25.003-60.331-9.515-44.843-25.003-60.331-36.736-25.003-60.331-25.003h-85.333v85.333c0 23.595 9.515 44.843 25.003 60.331s36.736 25.003 60.331 25.003zM426.667 490.667v170.667c0 47.104-19.157 89.856-50.005 120.661s-73.557 50.005-120.661 50.005-89.856-19.157-120.661-50.005-50.005-73.557-50.005-120.661 19.157-89.856 50.005-120.661 73.557-50.005 120.661-50.005zM426.667 320.001h-170.667c-47.104 0-89.856-19.157-120.661-50.005s-50.005-73.557-50.005-120.661 19.157-89.856 50.005-120.661 73.557-50.005 120.661-50.005 89.856 19.157 120.661 50.005 50.005 73.557 50.005 120.661zM597.333 320.001v-170.667c0-47.104 19.157-89.856 50.005-120.661s73.557-50.005 120.661-50.005 89.856 19.157 120.661 50.005 50.005 73.557 50.005 120.661-19.157 89.856-50.005 120.661-73.557 50.005-120.661 50.005zM597.333 490.667v-170.667h-170.667v170.667zM768 832.001c-47.104 0-89.856-19.157-120.661-50.005s-50.005-73.557-50.005-120.661v-170.667h170.667c47.104 0 89.856 19.157 120.661 50.005s50.005 73.557 50.005 120.661-19.157 89.856-50.005 120.661-73.557 50.005-120.661 50.005z" />
<glyph unicode="&#xe909;" glyph-name="tel2" horiz-adv-x="1020" d="M932.165 885.734l-881.732-411.081v-59.421l252.536-89.853 79.868-295.312 63.754 0.014 102.79 121.214 216.994-183.692 42.233 18.521 159.948 864.401zM764.676 45.986l-285.779 241.924-31.854-49.975 58.551-49.565-83.166-96.281-65.26 241.285 377.987 260.107-27.581 53.244-383.55-263.933-185.554 66.018 766.908 357.546zM934.286 898.364l-894.406-416.988v-73.589l254.348-90.496 80.536-297.774 76.72 0.015 99.13 116.9 213.974-181.134 53.386 23.411 161.999 875.467zM930.045 873.103l27.114-26.227-157.902-853.33-31.084-13.63-220.013 186.247-106.451-125.526-50.788-0.010-79.198 292.847-250.73 89.208v45.251zM919.481 824.569l-808.801-377.078 214.886-76.454 378.139 260.208 17.797-34.355-376.47-259.066 72.397-267.678 103.118 119.381-59.651 50.495 20.404 32.015 290.443-245.87 3.31 17.889zM891.272 788.131l-133.664-722.342-281.121 237.977-43.296-67.934 57.446-48.635-63.214-73.176-58.121 214.893 379.499 261.149-37.364 72.128-388.96-267.658-156.225 55.581z" />
<glyph unicode="&#xe90a;" glyph-name="zap" d="M494.293 692.907l-24.619-196.949c1.408-30.549 19.84-47.957 42.325-47.957h292.907l-275.2-330.24 24.619 196.949c-1.408 30.549-19.84 47.957-42.325 47.957h-292.907zM521.899 859.307l-426.667-512c-15.104-18.091-12.629-45.013 5.461-60.075 7.979-6.699 17.707-9.941 27.307-9.899h335.659l-36.651-293.376c-2.944-23.381 13.653-44.715 37.035-47.616 14.891-1.877 28.928 4.181 38.059 15.019l426.667 512c15.104 18.091 12.629 45.013-5.461 60.075-7.979 6.699-17.707 9.941-27.307 9.899h-335.659l36.651 293.376c2.944 23.381-13.653 44.715-37.035 47.616-14.891 1.877-28.928-4.181-38.059-15.019z" />
<glyph unicode="&#xe90b;" glyph-name="user" d="M896 21.334v85.333c0 58.88-23.936 112.299-62.464 150.869s-91.989 62.464-150.869 62.464h-341.333c-58.88 0-112.299-23.936-150.869-62.464s-62.464-91.989-62.464-150.869v-85.333c0-23.552 19.115-42.667 42.667-42.667s42.667 19.115 42.667 42.667v85.333c0 35.371 14.293 67.285 37.504 90.496s55.125 37.504 90.496 37.504h341.333c35.371 0 67.285-14.293 90.496-37.504s37.504-55.125 37.504-90.496v-85.333c0-23.552 19.115-42.667 42.667-42.667s42.667 19.115 42.667 42.667zM725.333 618.667c0 58.88-23.936 112.299-62.464 150.869s-91.989 62.464-150.869 62.464-112.299-23.936-150.869-62.464-62.464-91.989-62.464-150.869 23.936-112.299 62.464-150.869 91.989-62.464 150.869-62.464 112.299 23.936 150.869 62.464 62.464 91.989 62.464 150.869zM640 618.667c0-35.371-14.293-67.285-37.504-90.496s-55.125-37.504-90.496-37.504-67.285 14.293-90.496 37.504-37.504 55.125-37.504 90.496 14.293 67.285 37.504 90.496 55.125 37.504 90.496 37.504 67.285-14.293 90.496-37.504 37.504-55.125 37.504-90.496z" />
<glyph unicode="&#xe90c;" glyph-name="github" d="M371.755 147.542c-54.101-16.213-87.893-14.293-110.208-7.253-9.856 3.115-18.389 7.509-26.197 12.885-17.536 12.117-31.019 28.8-47.744 50.005-15.189 19.243-36.267 47.232-66.176 62.976-7.893 4.181-16.469 7.552-25.771 9.899-22.869 5.717-46.037-8.192-51.755-31.061s8.192-46.037 31.061-51.755c3.157-0.981 6.613-2.56 6.613-2.56 10.752-5.675 20.779-17.237 38.997-40.363 15.616-19.797 36.523-46.848 66.261-67.371 14.165-9.771 30.336-18.176 49.024-24.064 43.307-13.696 95.403-12.629 160.427 6.912 22.571 6.784 35.371 30.549 28.587 53.12s-30.549 35.371-53.12 28.587zM725.333-21.333v161.792c2.219 29.184-2.389 57.301-12.459 82.859 33.152 7.296 66.688 18.219 98.005 35.115 88.875 47.957 149.163 138.325 149.163 295.381 0 64.128-22.016 123.179-58.837 169.856 15.147 57.387 9.643 116.309-12.501 167.808-5.205 12.075-15.317 20.565-27.051 24.064-15.232 4.523-73.899 13.184-186.581-58.112-96.981 23.083-194.432 21.717-283.563 0.085-112.597 71.211-171.221 62.549-186.453 58.027-12.629-3.755-22.229-12.8-27.093-24.107-23.637-55.125-26.624-114.005-12.459-167.765-39.68-50.261-59.179-110.976-58.837-171.392 0-154.539 59.264-244.181 146.816-292.651 32.085-17.749 66.56-29.227 100.565-36.992-7.893-19.968-12.203-41.003-12.971-62.123-0.213-6.016-0.128-12.075 0.213-18.091l0.043-163.755c0-23.552 19.115-42.667 42.667-42.667s42.667 19.115 42.667 42.667v165.12c0 0.896-0.043 1.92-0.085 2.944-0.256 3.584-0.299 7.168-0.171 10.752 0.853 24.235 10.283 48.043 28.373 66.731 6.187 6.357 10.496 14.805 11.691 24.405 2.901 23.381-13.696 44.715-37.077 47.616-14.507 1.792-28.885 4.011-42.923 6.784-33.707 6.656-64.768 16.427-91.605 31.275-55.68 30.848-102.016 88.363-102.827 215.125 0.555 52.949 17.877 98.944 52.224 135.040 10.965 11.648 14.933 28.629 9.045 44.373-11.947 31.915-14.549 67.413-5.973 102.059 20.949-4.565 57.771-17.749 112.939-54.699 10.027-6.699 22.741-9.131 35.2-5.675 85.205 23.765 180.992 25.685 276.053-0.085 11.563-3.115 24.277-1.408 34.901 5.76 55.168 36.949 91.989 50.133 112.939 54.699 8.064-32.683 6.699-68.053-6.016-102.059-5.504-15.019-2.475-32.213 9.088-44.373 32.341-33.92 52.224-79.872 52.224-130.56 0-131.2-47.531-189.653-104.32-220.288-26.581-14.336-57.301-23.68-90.581-29.867-13.739-2.56-27.776-4.523-41.941-6.101-8.96-0.981-17.835-4.864-24.917-11.733-16.939-16.384-17.408-43.392-1.024-60.331 2.859-2.987 5.547-6.101 8.021-9.387 14.507-19.157 22.229-43.307 20.224-68.992 0-1.024-0.043-2.176-0.128-3.328v-165.205c0-23.552 19.115-42.667 42.667-42.667s42.667 19.115 42.667 42.667z" />
<glyph unicode="&#xe90d;" glyph-name="ga4" horiz-adv-x="1322" d="M198.763 20.276v0c84.771-17.425 170.574 14.205 223.877 82.538l80.901 103.723h314.917l80.901-103.723c52.974-67.918 138.567-100.078 223.877-82.538 120.612 24.795 199.602 141.69 177.164 263.541l-71.949 390.774c-17.412 94.544-99.663 163.178-195.591 163.178h-132.155c-10.031 0-19.721-3.609-27.306-10.169l-74.815-64.719h-275.15l-74.815 64.719c-7.587 6.566-17.275 10.169-27.304 10.169h-132.157c-95.934 0-178.185-68.629-195.59-163.178l-71.95-390.777c-22.392-121.585 56.266-238.679 177.17-263.541zM1106.421 102.041l0.772-3.765-0.774 3.765c-53.462-10.995-107.569 8.957-141.228 52.108l-93.439 119.791c-7.911 10.145-20.054 16.071-32.913 16.071h-355.678c-12.859 0-25.002-5.931-32.913-16.071l-93.439-119.791c-33.657-43.151-87.757-63.115-141.228-52.108-76.272 15.679-126.053 89.671-111.878 166.657l71.95 390.781c10.117 54.957 57.86 94.818 113.487 94.818h116.601l74.813-64.719c7.587-6.566 17.277-10.169 27.306-10.169h306.247c10.031 0 19.721 3.609 27.306 10.169l74.813 64.719h116.601c55.639 0 103.372-39.861 113.488-94.818l71.96-390.777c14.16-76.924-35.543-150.971-111.878-166.657zM289.141 842.080c-97.987 0-182.045-70.146-199.828-166.706l-71.952-390.777c-22.542-122.408 55.63-240.288 176.367-267.451l-0.042-0.213 8.437-1.74 0.026 0.146c84.959-15.856 170.5 16.383 223.883 84.827l79.612 102.061h310.714l79.608-102.061c53.95-69.174 141.265-101.963 228.138-84.109 122.867 25.262 203.382 144.433 180.529 268.536l-71.952 390.773c-17.784 96.557-101.841 166.709-199.828 166.709h-132.156c-11.064 0-21.758-3.983-30.125-11.222l-73.605-63.665h-271.943l-73.605 63.665c-8.369 7.242-19.060 11.222-30.121 11.222zM289.141 833.471h132.16c8.997 0 17.681-3.24 24.485-9.118l76.030-65.765h278.355l76.030 65.765c6.803 5.887 15.5 9.118 24.489 9.118h132.156c93.879 0 174.322-67.115 191.362-159.651l71.948-390.773c22.024-119.593-55.431-234.208-173.799-258.542-83.731-17.214-167.615 14.306-219.612 80.977l-82.192 105.384h-319.122l-82.192-105.384c-52.316-67.068-136.395-98.072-219.604-80.977h-0.013c-0.002 0.001-0.006 0.004-0.008 0.004-118.642 24.397-195.771 139.203-173.794 258.538l71.948 390.777c17.039 92.534 97.482 159.647 191.362 159.647zM289.141 758.604c-57.691 0-107.24-41.385-117.728-98.344l-71.952-390.781c-14.589-79.23 36.724-155.503 115.25-171.645 55.041-11.32 110.855 9.269 145.49 53.679l93.439 119.79c7.092 9.101 17.986 14.41 29.52 14.41h355.676c11.542 0 22.426-5.319 29.52-14.41l93.439-119.79c34.638-44.41 90.457-64.999 145.49-53.679l-0.543 0.351 0.893 0.182-0.351-0.543c78.59 16.157 129.829 92.486 115.25 171.649l-71.96 390.777c-10.486 56.96-60.036 98.344-117.728 98.344h-118.21l-76.030-65.765c-6.803-5.887-15.498-9.122-24.485-9.122h-306.247c-8.997 0-17.681 3.24-24.485 9.118l-76.030 65.765zM289.141 749.994h114.998l73.605-63.669c8.369-7.243 19.064-11.222 30.125-11.222h306.247c11.064 0 21.758 3.983 30.125 11.222l73.605 63.669h114.998c53.575 0 99.517-38.347 109.261-91.293l71.96-390.777c13.745-74.666-34.427-146.424-108.5-161.663l-0.021-0.004c-51.9-10.671-104.294 8.646-136.965 50.548l-93.439 119.79c-8.721 11.19-22.124 17.733-36.312 17.733h-355.675c-14.188 0-27.589-6.545-36.312-17.733l-93.439-119.79c-32.678-41.892-85.065-61.217-136.965-50.548h-0.004c-74.021 15.217-122.271 86.925-108.51 161.663l71.948 390.781c9.746 52.942 55.686 91.293 109.261 91.293zM383.257 521.971v-0.857h55.102c20.198 0 36.578-16.378 36.582-36.576 0-20.196-16.38-36.572-36.578-36.572h-55.102v-55.094c0-20.196-16.38-36.572-36.58-36.572-20.198 0-36.578 16.376-36.578 36.572v55.096h-55.102c-20.198 0-36.578 16.378-36.578 36.574 0 20.194 16.38 36.572 36.578 36.572h55.1v55.098c0 20.196 16.38 36.574 36.578 36.574s36.578-16.378 36.578-36.574zM346.69 613.642c-20.663 0-37.435-16.77-37.435-37.431v-54.237h-54.237c-20.663 0-37.435-16.767-37.435-37.427s16.772-37.431 37.435-37.431h54.237v-54.237c0-20.661 16.772-37.427 37.435-37.427 20.665 0 37.439 16.765 37.439 37.427v54.237h54.237c20.663 0 37.431 16.77 37.431 37.431-0.004 20.663-16.772 37.431-37.435 37.431h-54.237v54.237c0 20.661-16.772 37.431-37.435 37.431zM346.69 611.918c19.734 0 35.711-15.975 35.711-35.707v-55.954h55.958c19.734 0 35.707-15.973 35.711-35.707 0-19.731-15.973-35.707-35.707-35.707h-55.958v-55.95c0-19.731-15.979-35.703-35.715-35.703-19.734 0-35.711 15.971-35.711 35.703v55.954h-55.954c-19.734 0-35.711 15.975-35.711 35.707 0 19.729 15.977 35.703 35.711 35.703h55.954v55.954c0 19.731 15.977 35.707 35.711 35.707zM847.46 484.537c0 77.93 63.409 141.333 141.346 141.333 77.932 0 141.342-63.399 141.344-141.333 0-77.926-63.407-141.329-141.344-141.329s-141.346 63.403-141.346 141.329zM920.607 484.54c0-37.604 30.591-68.193 68.199-68.193 37.606 0 68.199 30.589 68.199 68.193s-30.593 68.195-68.199 68.195c-37.608 0-68.199-30.591-68.199-68.195zM988.807 626.734c-78.403 0-142.204-63.791-142.204-142.2 0-78.393 63.801-142.196 142.204-142.196s142.2 63.791 142.2 142.196c-0.002 78.401-63.801 142.2-142.2 142.2zM988.807 625.010c77.465 0 140.486-63.008 140.486-140.476 0-77.459-63.012-140.472-140.486-140.472s-140.486 63.012-140.486 140.472c0 77.463 63.012 140.476 140.486 140.476zM988.807 553.591c-38.075 0-69.054-30.979-69.054-69.050s30.979-69.050 69.054-69.050c38.073 0 69.054 30.979 69.054 69.050s-30.982 69.050-69.054 69.050zM988.807 551.876c37.139 0 67.33-30.195 67.33-67.326s-30.195-67.326-67.33-67.326c-37.141 0-67.33 30.195-67.33 67.326s30.195 67.326 67.33 67.326z" />
<glyph unicode="&#xe90e;" glyph-name="globe" d="M723.243 448.001c-9.131 114.773-47.019 228.395-114.091 328.96 66.987-17.451 126.848-52.565 174.379-100.096 60.075-60.075 100.309-139.861 110.123-228.864zM609.237 33.75c63.275 94.976 103.979 207.061 113.877 328.917h170.539c-9.813-89.003-50.048-168.789-110.123-228.864-47.488-47.488-107.349-82.603-174.293-100.053zM300.757 362.667c9.131-114.773 47.019-228.395 114.091-328.96-66.987 17.451-126.848 52.565-174.379 100.096-60.075 60.075-100.309 139.861-110.123 228.864zM414.763 776.918c-63.232-94.976-103.936-207.061-113.877-328.917h-170.539c9.813 89.003 50.048 168.789 110.123 228.864 47.531 47.488 107.349 82.603 174.293 100.053zM512.171 874.667c0 0 0 0 0 0-129.877-0.043-247.211-52.608-332.032-137.472-84.907-84.864-137.472-202.283-137.472-331.861s52.565-246.997 137.472-331.861c84.821-84.864 202.155-137.429 331.691-137.472 0 0 0 0 0 0 129.877 0.043 247.168 52.608 332.032 137.472 84.907 84.864 137.472 202.283 137.472 331.861s-52.565 246.997-137.472 331.861c-84.821 84.864-202.155 137.429-331.691 137.472zM637.696 362.667c-10.752-118.955-56.149-228.693-125.653-317.909-73.771 94.763-115.456 205.568-125.653 317.909zM511.957 765.91c73.771-94.763 115.456-205.568 125.653-317.909h-251.307c10.752 118.955 56.149 228.693 125.653 317.909z" />
<glyph unicode="&#xe90f;" glyph-name="user-check" d="M725.333 21.334v85.333c0 58.88-23.936 112.299-62.464 150.869s-91.989 62.464-150.869 62.464h-298.667c-58.88 0-112.299-23.936-150.869-62.464s-62.464-91.989-62.464-150.869v-85.333c0-23.552 19.115-42.667 42.667-42.667s42.667 19.115 42.667 42.667v85.333c0 35.371 14.293 67.285 37.504 90.496s55.125 37.504 90.496 37.504h298.667c35.371 0 67.285-14.293 90.496-37.504s37.504-55.125 37.504-90.496v-85.333c0-23.552 19.115-42.667 42.667-42.667s42.667 19.115 42.667 42.667zM576 618.667c0 58.88-23.936 112.299-62.464 150.869s-91.989 62.464-150.869 62.464-112.299-23.936-150.869-62.464-62.464-91.989-62.464-150.869 23.936-112.299 62.464-150.869 91.989-62.464 150.869-62.464 112.299 23.936 150.869 62.464 62.464 91.989 62.464 150.869zM490.667 618.667c0-35.371-14.293-67.285-37.504-90.496s-55.125-37.504-90.496-37.504-67.285 14.293-90.496 37.504-37.504 55.125-37.504 90.496 14.293 67.285 37.504 90.496 55.125 37.504 90.496 37.504 67.285-14.293 90.496-37.504 37.504-55.125 37.504-90.496zM695.168 417.835l85.333-85.333c16.683-16.683 43.691-16.683 60.331 0l170.667 170.667c16.683 16.683 16.683 43.691 0 60.331s-43.691 16.683-60.331 0l-140.501-140.501-55.168 55.168c-16.683 16.683-43.691 16.683-60.331 0s-16.683-43.691 0-60.331z" />
<glyph unicode="&#xe910;" glyph-name="py" d="M874 646.667h-142v142c0 82.711-67.288 150-149.999 150h-140.001c-82.711 0-149.999-67.289-149.999-150v-142h-142c-82.711 0-150-67.288-150-149.999v-140.001c0-82.711 67.289-149.999 150-149.999h142v-142c0-82.711 67.288-150 149.999-150h140.001c82.711 0 149.999 67.289 149.999 150v142h142c82.711 0 150 67.288 150 149.999v140.001c0 82.711-67.289 149.999-150 149.999zM150 266.667c-49.625 0-90 40.375-90 89.999v140.001c0 49.625 40.375 89.999 90 89.999h362c16.571 0 30.001 13.43 30.001 30.001 0 16.569-13.43 29.999-30.001 29.999h-160v142c0 49.625 40.375 90 89.999 90h140.001c49.625 0 89.999-40.375 89.999-90v-331.999h-350c-16.569 0-29.999-13.43-29.999-30.001v-160zM964 356.667c0-49.625-40.375-89.999-90-89.999h-362c-16.571 0-30.001-13.43-30.001-30.001 0-16.569 13.43-29.999 30.001-29.999h160v-142c0-49.626-40.375-90-89.999-90h-140.001c-49.625 0-89.999 40.375-89.999 90v331.999h350c16.569 0 29.999 13.43 29.999 30.001v160h142c49.626 0 90-40.375 90-89.999zM442 951.201c-89.509 0-162.534-73.025-162.534-162.534v-129.466h-129.466c-89.509 0-162.534-73.025-162.534-162.534v-140c0-89.509 73.025-162.534 162.534-162.534h129.466v-129.466c0-89.508 73.025-162.534 162.534-162.534h140c89.509 0 162.534 73.025 162.534 162.534v129.466h129.466c89.508 0 162.534 73.025 162.534 162.534v140c0 89.509-73.025 162.534-162.534 162.534h-129.466v129.466c0 89.509-73.025 162.534-162.534 162.534zM442 926.133h140c75.913 0 137.466-61.553 137.466-137.466v-154.534h154.534c75.913 0 137.466-61.553 137.466-137.466v-140c0-75.913-61.553-137.466-137.466-137.466h-154.534v-154.534c0-75.913-61.553-137.466-137.466-137.466h-140c-75.913 0-137.466 61.553-137.466 137.466v154.534h-154.534c-75.913 0-137.466 61.553-137.466 137.466v140c0 75.913 61.553 137.466 137.466 137.466h154.534v154.534c0 75.913 61.553 137.466 137.466 137.466zM442 891.201c-56.423 0-102.534-46.11-102.534-102.534v-154.534h172.534c9.799 0 17.466-7.669 17.466-17.466 0-9.799-7.668-17.466-17.466-17.466h-362c-56.423 0-102.534-46.111-102.534-102.534v-140c0-56.423 46.11-102.534 102.534-102.534h154.534v172.534c0 9.799 7.669 17.466 17.466 17.466h362.534v344.534c0 56.423-46.111 102.534-102.534 102.534zM442 866.133h140c42.826 0 77.466-34.639 77.466-77.466v-319.466h-337.466c-23.342 0-42.534-19.191-42.534-42.534v-147.466h-129.466c-42.827 0-77.466 34.64-77.466 77.466v140c0 42.826 34.639 77.466 77.466 77.466h362c23.343 0 42.534 19.191 42.534 42.534s-19.191 42.534-42.534 42.534h-147.466v129.466c0 42.827 34.64 77.466 77.466 77.466zM719.466 599.201v-172.534c0-9.799-7.669-17.466-17.466-17.466h-362.534v-344.534c0-56.424 46.111-102.534 102.534-102.534h140c56.423 0 102.534 46.11 102.534 102.534v154.534h-172.534c-9.799 0-17.466 7.669-17.466 17.466 0 9.799 7.668 17.466 17.466 17.466h362c56.424 0 102.534 46.111 102.534 102.534v140c0 56.423-46.11 102.534-102.534 102.534zM744.534 574.133h129.466c42.828 0 77.466-34.64 77.466-77.466v-140c0-42.826-34.639-77.466-77.466-77.466h-362c-23.343 0-42.534-19.191-42.534-42.534s19.191-42.534 42.534-42.534h147.466v-129.466c0-42.828-34.64-77.466-77.466-77.466h-140c-42.826 0-77.466 34.639-77.466 77.466v319.466h337.466c23.342 0 42.534 19.191 42.534 42.534zM472 758.667c0-16.571-13.43-30.001-30.001-30.001-16.569 0-29.999 13.43-29.999 30.001 0 16.569 13.43 29.999 29.999 29.999 16.571 0 30.001-13.43 30.001-29.999zM612 94.667c0-16.569-13.43-29.999-29.999-29.999-16.571 0-30.001 13.43-30.001 29.999 0 16.571 13.43 30.001 30.001 30.001 16.569 0 29.999-13.43 29.999-30.001z" />
<glyph unicode="&#xe911;" glyph-name="heart" d="M859.008 690.475c37.547-37.589 56.277-86.656 56.277-135.851s-18.773-98.261-56.277-135.765l-347.008-347.008-347.008 347.008c-37.504 37.504-56.235 86.571-56.235 135.808s18.731 98.304 56.235 135.808 86.571 56.235 135.808 56.235 98.304-18.731 135.808-56.235l45.227-45.227c16.683-16.683 43.691-16.683 60.331 0l45.312 45.312c37.504 37.504 86.571 56.235 135.765 56.192s98.261-18.773 135.765-56.277zM919.339 750.806c-54.144 54.144-125.184 81.237-196.096 81.28s-141.952-27.051-196.139-81.195l-15.104-15.147-15.061 15.061c-54.144 54.144-125.227 81.237-196.139 81.237s-141.995-27.093-196.139-81.237-81.237-125.227-81.237-196.139 27.093-141.995 81.237-196.139l377.173-377.173c16.683-16.683 43.691-16.683 60.331 0l377.173 377.173c54.144 54.144 81.237 125.184 81.28 196.096s-27.051 141.952-81.28 196.181z" />
<glyph unicode="&#xe912;" glyph-name="user-plus" d="M725.333 21.334v85.333c0 58.88-23.936 112.299-62.464 150.869s-91.989 62.464-150.869 62.464h-298.667c-58.88 0-112.299-23.936-150.869-62.464s-62.464-91.989-62.464-150.869v-85.333c0-23.552 19.115-42.667 42.667-42.667s42.667 19.115 42.667 42.667v85.333c0 35.371 14.293 67.285 37.504 90.496s55.125 37.504 90.496 37.504h298.667c35.371 0 67.285-14.293 90.496-37.504s37.504-55.125 37.504-90.496v-85.333c0-23.552 19.115-42.667 42.667-42.667s42.667 19.115 42.667 42.667zM576 618.667c0 58.88-23.936 112.299-62.464 150.869s-91.989 62.464-150.869 62.464-112.299-23.936-150.869-62.464-62.464-91.989-62.464-150.869 23.936-112.299 62.464-150.869 91.989-62.464 150.869-62.464 112.299 23.936 150.869 62.464 62.464 91.989 62.464 150.869zM490.667 618.667c0-35.371-14.293-67.285-37.504-90.496s-55.125-37.504-90.496-37.504-67.285 14.293-90.496 37.504-37.504 55.125-37.504 90.496 14.293 67.285 37.504 90.496 55.125 37.504 90.496 37.504 67.285-14.293 90.496-37.504 37.504-55.125 37.504-90.496zM981.333 490.667h-85.333v85.333c0 23.552-19.115 42.667-42.667 42.667s-42.667-19.115-42.667-42.667v-85.333h-85.333c-23.552 0-42.667-19.115-42.667-42.667s19.115-42.667 42.667-42.667h85.333v-85.333c0-23.552 19.115-42.667 42.667-42.667s42.667 19.115 42.667 42.667v85.333h85.333c23.552 0 42.667 19.115 42.667 42.667s-19.115 42.667-42.667 42.667z" />
<glyph unicode="&#xe913;" glyph-name="alert-circle" d="M981.333 405.334c0 129.579-52.565 246.997-137.472 331.861s-202.283 137.472-331.861 137.472-246.997-52.565-331.861-137.472-137.472-202.283-137.472-331.861 52.565-246.997 137.472-331.861 202.283-137.472 331.861-137.472 246.997 52.565 331.861 137.472 137.472 202.283 137.472 331.861zM896 405.334c0-106.069-42.923-201.984-112.469-271.531s-165.461-112.469-271.531-112.469-201.984 42.923-271.531 112.469-112.469 165.461-112.469 271.531 42.923 201.984 112.469 271.531 165.461 112.469 271.531 112.469 201.984-42.923 271.531-112.469 112.469-165.461 112.469-271.531zM469.333 576.001v-170.667c0-23.552 19.115-42.667 42.667-42.667s42.667 19.115 42.667 42.667v170.667c0 23.552-19.115 42.667-42.667 42.667s-42.667-19.115-42.667-42.667zM512 192.001c23.552 0 42.667 19.115 42.667 42.667s-19.115 42.667-42.667 42.667-42.667-19.115-42.667-42.667 19.115-42.667 42.667-42.667z" />
<glyph unicode="&#xe914;" glyph-name="home" d="M101.803 566.998c-10.069-7.851-16.469-20.011-16.469-33.664v-469.333c0-35.328 14.379-67.413 37.504-90.496s55.168-37.504 90.496-37.504h597.333c35.328 0 67.413 14.379 90.496 37.504s37.504 55.168 37.504 90.496v469.333c-0.043 12.8-5.717 25.301-16.469 33.664l-384 298.667c-15.275 11.733-36.736 12.16-52.395 0zM682.667 21.334v384c0 23.552-19.115 42.667-42.667 42.667h-256c-23.552 0-42.667-19.115-42.667-42.667v-384h-128c-11.776 0-22.4 4.736-30.165 12.501s-12.501 18.389-12.501 30.165v448.469l341.333 265.472 341.333-265.472v-448.469c0-11.776-4.736-22.4-12.501-30.165s-18.389-12.501-30.165-12.501zM426.667 21.334v341.333h170.667v-341.333z" />
<glyph unicode="&#xe915;" glyph-name="instagram" d="M298.667 874.667c-70.699 0-134.741-28.715-181.035-74.965s-74.965-110.336-74.965-181.035v-426.667c0-70.699 28.715-134.741 74.965-181.035s110.336-74.965 181.035-74.965h426.667c70.699 0 134.741 28.715 181.035 74.965s74.965 110.336 74.965 181.035v426.667c0 70.699-28.715 134.741-74.965 181.035s-110.336 74.965-181.035 74.965zM298.667 789.334h426.667c47.147 0 89.728-19.072 120.661-50.005s50.005-73.515 50.005-120.661v-426.667c0-47.147-19.072-89.728-50.005-120.661s-73.515-50.005-120.661-50.005h-426.667c-47.147 0-89.728 19.072-120.661 50.005s-50.005 73.515-50.005 120.661v426.667c0 47.147 19.072 89.728 50.005 120.661s73.515 50.005 120.661 50.005zM724.864 438.486c-6.4 41.472-24.363 79.232-50.944 109.525-32.171 36.736-76.971 62.507-128.384 70.144-19.797 3.157-41.387 3.285-63.019 0.085-58.283-8.619-107.563-40.149-140.032-83.925s-48.341-100.139-39.68-158.379 40.149-107.563 83.925-140.032 100.139-48.341 158.379-39.68 107.563 40.149 140.032 83.925 48.341 100.139 39.68 158.379zM640.469 425.942c5.205-34.987-4.267-68.651-23.808-95.019s-49.067-45.184-84.011-50.347-68.651 4.267-95.019 23.808-45.184 49.067-50.347 84.011 4.267 68.651 23.808 95.019 49.067 45.184 84.011 50.347c13.355 1.963 26.24 1.792 37.12 0.085 31.573-4.693 58.283-20.053 77.568-42.069 16-18.261 26.88-41.088 30.72-65.835zM746.667 597.334c23.552 0 42.667 19.115 42.667 42.667s-19.115 42.667-42.667 42.667-42.667-19.115-42.667-42.667 19.115-42.667 42.667-42.667z" />
<glyph unicode="&#xe916;" glyph-name="alert-octagon" d="M335.36 874.667c-10.923 0-21.845-4.181-30.165-12.501l-250.027-250.027c-7.723-7.723-12.501-18.389-12.501-30.165v-353.28c0-10.923 4.181-21.845 12.501-30.165l250.027-250.027c7.723-7.723 18.389-12.501 30.165-12.501h353.28c10.923 0 21.845 4.181 30.165 12.501l250.027 250.027c7.723 7.723 12.501 18.389 12.501 30.165v353.28c0 10.923-4.181 21.845-12.501 30.165l-250.027 250.027c-7.723 7.723-18.389 12.501-30.165 12.501zM353.024 789.334h317.952l225.024-225.024v-317.952l-225.024-225.024h-317.952l-225.024 225.024v317.952zM469.333 576.001v-170.667c0-23.552 19.115-42.667 42.667-42.667s42.667 19.115 42.667 42.667v170.667c0 23.552-19.115 42.667-42.667 42.667s-42.667-19.115-42.667-42.667zM512 192.001c23.552 0 42.667 19.115 42.667 42.667s-19.115 42.667-42.667 42.667-42.667-19.115-42.667-42.667 19.115-42.667 42.667-42.667z" />
<glyph unicode="&#xe917;" glyph-name="life-buoy" d="M981.333 405.334c0 129.579-52.565 246.997-137.472 331.861s-202.283 137.472-331.861 137.472-246.997-52.565-331.861-137.472-137.472-202.283-137.472-331.861 52.565-246.997 137.472-331.861 202.283-137.472 331.861-137.472 246.997 52.565 331.861 137.472 137.472 202.283 137.472 331.861zM640 405.334c0-35.371-14.293-67.285-37.504-90.496s-55.125-37.504-90.496-37.504-67.285 14.293-90.496 37.504-37.504 55.125-37.504 90.496 14.293 67.285 37.504 90.496 55.125 37.504 90.496 37.504 67.285-14.293 90.496-37.504 37.504-55.125 37.504-90.496zM751.701 705.366l-122.027-122.027c0 0 0 0 0 0-33.749 22.315-74.197 35.328-117.675 35.328s-83.925-13.013-117.632-35.371l-122.027 122.027c65.664 52.608 148.992 84.011 239.659 84.011s173.995-31.403 239.701-83.968zM812.032 645.035c52.565-65.707 83.968-149.035 83.968-239.701s-31.403-173.995-83.968-239.701l-122.027 122.027c22.315 33.749 35.328 74.197 35.328 117.675s-13.013 83.925-35.371 117.632zM334.037 287.702l-122.027-122.027c-52.608 65.664-84.011 148.992-84.011 239.659s31.403 173.995 83.968 239.701l122.027-122.027c-22.315-33.749-35.328-74.197-35.328-117.675s13.013-83.925 35.371-117.632zM272.299 105.302l122.027 122.027c33.749-22.315 74.197-35.328 117.675-35.328s83.925 13.013 117.632 35.371l122.027-122.027c-65.664-52.608-148.992-84.011-239.659-84.011s-173.995 31.403-239.701 83.968z" />
<glyph unicode="&#xe918;" glyph-name="pen-tool" d="M798.165 332.502l12.501 12.501 67.669-67.669-238.336-238.336-67.669 67.669 12.501 12.501zM96.085 873.302c-1.493 0.384-2.987 0.683-4.523 0.896-6.101 0.939-12.117 0.469-17.792-1.109-5.632-1.579-11.051-4.352-15.787-8.32-3.925-3.285-7.296-7.296-9.856-11.904-2.56-4.523-4.224-9.387-4.949-14.379-0.853-5.461-0.64-10.88 0.512-15.829 0.043-0.213 0.128-0.469 0.171-0.683l0.171-0.725 149.163-617.941c4.011-16.555 17.195-28.544 33.109-31.829l245.973-49.195c-6.016-15.317-2.859-33.408 9.557-45.781l128-128c16.683-16.683 43.691-16.683 60.331 0l298.667 298.667c16.683 16.683 16.683 43.691 0 60.331l-128 128c-12.373 12.373-30.464 15.573-45.781 9.557l-49.195 245.973c-3.328 16.725-16.043 29.184-31.829 33.109zM597.333 448.001c0 35.328-14.379 67.413-37.504 90.496s-55.168 37.504-90.496 37.504c-19.755 0-38.485-4.48-55.168-12.501l-191.445 191.445 444.8-107.349 54.187-270.891-181.035-181.035-270.891 54.187-107.392 444.757 191.445-191.445c-8.021-16.683-12.501-35.413-12.501-55.168 0-35.328 14.379-67.413 37.504-90.496s55.168-37.504 90.496-37.504 67.413 14.379 90.496 37.504 37.504 55.168 37.504 90.496zM512 448.001c0-11.776-4.736-22.4-12.501-30.165s-18.389-12.501-30.165-12.501-22.4 4.736-30.165 12.501-12.501 18.389-12.501 30.165c0 11.52 4.523 21.931 11.989 29.653 0.171 0.171 0.341 0.341 0.555 0.512s0.341 0.341 0.512 0.555c7.68 7.424 18.091 11.947 29.611 11.947 11.776 0 22.4-4.736 30.165-12.501s12.501-18.389 12.501-30.165z" />
<glyph unicode="&#xe919;" glyph-name="settings" d="M682.667 405.334c0 47.104-19.157 89.856-50.005 120.661s-73.557 50.005-120.661 50.005-89.856-19.157-120.661-50.005-50.005-73.557-50.005-120.661 19.157-89.856 50.005-120.661 73.557-50.005 120.661-50.005 89.856 19.157 120.661 50.005 50.005 73.557 50.005 120.661zM597.333 405.334c0-23.595-9.515-44.843-25.003-60.331s-36.736-25.003-60.331-25.003-44.843 9.515-60.331 25.003-25.003 36.736-25.003 60.331 9.515 44.843 25.003 60.331 36.736 25.003 60.331 25.003 44.843-9.515 60.331-25.003 25.003-36.736 25.003-60.331zM866.773 260.097c1.963 4.48 4.779 8.149 8.192 10.965 4.779 3.925 10.709 6.229 17.195 6.272h3.84c35.328 0 67.413 14.379 90.496 37.504s37.504 55.168 37.504 90.496-14.379 67.413-37.504 90.496-55.168 37.504-90.496 37.504h-6.784c-4.693 0.043-9.173 1.195-13.141 3.243-5.419 2.816-9.813 7.339-12.459 13.312-0.128 1.237-0.171 2.517-0.171 3.797-1.024 2.347-1.707 4.736-2.091 7.168 0.853 14.251 3.285 19.371 7.168 23.339l2.645 2.645c24.96 25.003 37.461 57.856 37.419 90.539s-12.544 65.536-37.589 90.539c-25.003 24.96-57.856 37.461-90.539 37.419s-65.536-12.544-90.453-37.504l-1.963-1.963c-3.541-3.413-7.808-5.803-12.288-7.083-5.973-1.664-12.416-1.365-18.688 1.408-4.309 1.877-7.979 4.693-10.795 8.107-3.925 4.779-6.229 10.709-6.272 17.195v3.84c0 35.328-14.379 67.413-37.504 90.496s-55.168 37.504-90.496 37.504-67.413-14.379-90.496-37.504-37.504-55.168-37.504-90.496v-6.784c-0.043-4.693-1.195-9.173-3.243-13.141-2.816-5.419-7.339-9.813-13.312-12.459-1.237-0.128-2.517-0.171-3.797-0.171-2.347-1.024-4.736-1.707-7.168-2.091-14.293 0.896-19.413 3.328-23.381 7.211l-2.645 2.645c-25.003 24.96-57.813 37.461-90.539 37.461s-65.493-12.544-90.539-37.632c-24.96-25.003-37.461-57.813-37.461-90.539s12.544-65.536 37.504-90.453l2.048-2.005c3.413-3.541 5.803-7.808 7.083-12.288 1.664-5.973 1.365-12.416-1.323-18.517-0.256-0.683-0.555-1.451-0.896-2.219-1.749-4.651-4.608-8.661-8.149-11.733-4.693-4.053-10.667-6.528-16.341-6.656h-3.84c-35.328 0-67.413-14.379-90.496-37.504s-37.504-55.211-37.504-90.539 14.379-67.413 37.504-90.496 55.168-37.504 90.496-37.504h6.784c4.693-0.043 9.173-1.195 13.141-3.243 5.461-2.859 9.941-7.424 12.629-13.696 1.024-2.347 1.707-4.736 2.091-7.168-0.853-14.251-3.285-19.371-7.168-23.339l-2.645-2.645c-24.96-25.003-37.461-57.856-37.419-90.539s12.544-65.536 37.589-90.539c25.003-24.96 57.856-37.461 90.539-37.419s65.536 12.544 90.453 37.504l2.005 2.048c3.541 3.413 7.808 5.803 12.288 7.083 5.973 1.664 12.416 1.365 18.517-1.323 0.683-0.256 1.451-0.555 2.219-0.896 4.651-1.749 8.661-4.608 11.733-8.149 4.053-4.693 6.528-10.667 6.656-16.341v-3.925c0-35.328 14.379-67.413 37.504-90.496s55.168-37.504 90.496-37.504 67.413 14.379 90.496 37.504 37.504 55.168 37.504 90.496v6.784c0.043 4.693 1.195 9.173 3.243 13.141 2.859 5.461 7.424 9.941 13.696 12.629 2.347 1.024 4.736 1.707 7.168 2.091 14.251-0.853 19.371-3.285 23.339-7.168l2.645-2.645c25.003-24.96 57.856-37.461 90.539-37.419s65.536 12.544 90.539 37.589c24.96 25.003 37.461 57.856 37.419 90.539s-12.544 65.536-37.504 90.453l-2.048 2.005c-3.413 3.541-5.803 7.808-7.083 12.288-1.664 5.973-1.365 12.416 1.323 18.517zM784.896 520.449c-0.512 8.576-1.621 12.672-3.243 16.299v-3.413c0-1.835 0.128-3.584 0.341-5.333 0.896-2.56 1.835-5.077 2.901-7.552 0.171-3.84 0.213-3.883 0.213-3.925 10.624-24.789 29.184-43.947 51.541-55.595 15.829-8.235 33.493-12.715 51.669-12.928h7.68c11.776 0 22.4-4.736 30.165-12.501s12.501-18.389 12.501-30.165-4.736-22.4-12.501-30.165-18.389-12.501-30.165-12.501h-3.84c-27.179-0.128-52.053-9.728-71.467-25.728-13.781-11.349-24.789-25.899-32-42.368-10.965-24.832-12.288-51.627-5.419-76.032 5.077-18.048 14.549-34.731 27.819-48.469l3.072-3.115c8.363-8.363 12.544-19.2 12.544-30.165s-4.139-21.845-12.459-30.165c-8.405-8.405-19.243-12.587-30.251-12.587s-21.845 4.139-30.165 12.459l-2.603 2.603c-19.755 19.328-44.373 29.952-69.632 32.085-18.645 1.579-37.632-1.451-55.168-9.045-24.661-10.581-43.819-29.141-55.467-51.456-8.235-15.829-12.715-33.493-12.928-51.669v-7.723c0-11.776-4.736-22.4-12.501-30.165s-18.347-12.459-30.123-12.459-22.4 4.736-30.165 12.501-12.501 18.389-12.501 30.165v3.84c-0.64 28.16-10.88 52.992-27.477 72.192-12.117 13.995-27.563 24.96-45.141 31.744-24.533 10.539-50.901 11.691-74.923 4.949-18.048-5.077-34.731-14.549-48.469-27.819l-3.115-3.072c-8.363-8.363-19.2-12.544-30.165-12.544s-21.845 4.139-30.165 12.459c-8.405 8.405-12.587 19.243-12.587 30.251s4.139 21.845 12.459 30.165l2.603 2.603c19.328 19.755 29.952 44.373 32.085 69.632 1.579 18.645-1.451 37.632-9.045 55.168-10.581 24.661-29.141 43.819-51.456 55.467-15.829 8.235-33.493 12.715-51.669 12.928l-7.68-0.043c-11.776 0-22.4 4.736-30.165 12.501s-12.501 18.389-12.501 30.165 4.736 22.4 12.501 30.165 18.389 12.501 30.165 12.501h3.84c28.16 0.64 52.992 10.88 72.192 27.477 13.995 12.117 24.96 27.563 31.744 45.141 10.539 24.533 11.691 50.901 4.949 74.923-5.077 18.048-14.549 34.731-27.819 48.469l-3.115 3.115c-8.363 8.363-12.544 19.2-12.544 30.165s4.139 21.845 12.459 30.165c8.405 8.405 19.243 12.587 30.251 12.587s21.845-4.139 30.165-12.459l2.603-2.603c19.755-19.328 44.373-29.952 69.632-32.085 15.787-1.365 31.787 0.597 46.976 5.845 4.096 0.512 7.936 1.536 11.349 3.072-1.323-0.043-2.603-0.128-3.797-0.171-8.576-0.512-12.672-1.621-16.299-3.243h3.413c1.835 0 3.584 0.128 5.333 0.341 2.56 0.896 5.077 1.835 7.552 2.901 3.84 0.171 3.883 0.213 3.925 0.213 24.789 10.624 43.947 29.184 55.595 51.541 8.235 15.787 12.715 33.493 12.928 51.627v7.723c0 11.776 4.736 22.4 12.501 30.165s18.389 12.501 30.165 12.501 22.4-4.736 30.165-12.501 12.501-18.389 12.501-30.165v-3.84c0.128-27.179 9.728-52.053 25.728-71.467 11.349-13.781 25.899-24.789 42.496-32.043 24.661-10.88 51.456-12.203 75.861-5.333 18.048 5.077 34.731 14.549 48.469 27.819l3.115 3.072c8.363 8.363 19.2 12.544 30.165 12.544s21.845-4.139 30.165-12.459c8.405-8.405 12.587-19.243 12.587-30.251s-4.139-21.845-12.459-30.165l-2.603-2.603c-19.328-19.755-29.952-44.373-32.085-69.632-1.365-15.787 0.597-31.787 5.845-46.976 0.512-4.053 1.579-7.893 3.072-11.349-0.043 1.365-0.085 2.645-0.171 3.797z" />
<glyph unicode="&#xe91a;" glyph-name="shield" d="M512 27.222c-50.517 28.672-188.587 114.987-258.133 236.757-3.371 5.888-6.528 11.776-9.515 17.792-19.456 38.869-31.019 80.128-31.019 123.563v269.099l298.667 112 298.667-112v-269.099c0-43.435-11.563-84.693-30.976-123.605-2.987-5.973-6.187-11.904-9.515-17.792-69.589-121.771-207.659-208.043-258.133-236.757zM531.072-59.477c0 0 212.864 105.6 313.173 281.131 4.096 7.168 8.021 14.507 11.776 21.973 24.235 48.427 39.979 102.741 39.979 161.707v298.667c0 18.176-11.392 33.707-27.691 39.936l-341.333 128c-10.069 3.797-20.693 3.499-29.952 0l-341.333-128c-17.024-6.357-27.563-22.485-27.691-39.936v-298.667c0-58.965 15.744-113.28 40.021-161.749 3.712-7.467 7.637-14.763 11.776-21.973 100.309-175.531 313.173-281.131 313.173-281.131 12.459-6.229 26.453-5.803 38.144 0z" />
<glyph unicode="&#xe91b;" glyph-name="slack" d="M618.667 448.001c29.44 0 56.149 11.947 75.435 31.232s31.232 45.995 31.232 75.435v213.333c0 29.44-11.947 56.149-31.232 75.435s-45.995 31.232-75.435 31.232-56.149-11.947-75.435-31.232-31.232-45.995-31.232-75.435v-213.333c0-29.44 11.947-56.149 31.232-75.435s45.995-31.232 75.435-31.232zM618.667 533.334c-5.973 0-11.264 2.347-15.104 6.229s-6.229 9.131-6.229 15.104v213.333c0 5.973 2.347 11.264 6.229 15.104s9.131 6.229 15.104 6.229 11.264-2.347 15.104-6.229 6.229-9.131 6.229-15.104v-213.333c0-5.973-2.347-11.264-6.229-15.104s-9.131-6.229-15.104-6.229zM874.667 448.001c29.44 0 56.149 11.947 75.435 31.232s31.232 45.995 31.232 75.435-11.947 56.149-31.232 75.435-45.995 31.232-75.435 31.232-56.149-11.947-75.435-31.232-31.232-45.995-31.232-75.435v-64c0-23.552 19.115-42.667 42.667-42.667zM874.667 533.334h-21.333v21.333c0 5.973 2.347 11.264 6.229 15.104s9.131 6.229 15.104 6.229 11.264-2.347 15.104-6.229 6.229-9.131 6.229-15.104-2.347-11.264-6.229-15.104-9.131-6.229-15.104-6.229zM405.333 362.667c-29.44 0-56.149-11.947-75.435-31.232s-31.232-45.995-31.232-75.435v-213.333c0-29.44 11.947-56.149 31.232-75.435s45.995-31.232 75.435-31.232 56.149 11.947 75.435 31.232 31.232 45.995 31.232 75.435v213.333c0 29.44-11.947 56.149-31.232 75.435s-45.995 31.232-75.435 31.232zM405.333 277.334c5.973 0 11.264-2.347 15.104-6.229s6.229-9.131 6.229-15.104v-213.333c0-5.973-2.347-11.264-6.229-15.104s-9.131-6.229-15.104-6.229-11.264 2.347-15.104 6.229-6.229 9.131-6.229 15.104v213.333c0 5.973 2.347 11.264 6.229 15.104s9.131 6.229 15.104 6.229zM149.333 362.667c-29.44 0-56.149-11.947-75.435-31.232s-31.232-45.995-31.232-75.435 11.947-56.149 31.232-75.435 45.995-31.232 75.435-31.232 56.149 11.947 75.435 31.232 31.232 45.995 31.232 75.435v64c0 23.552-19.115 42.667-42.667 42.667zM149.333 277.334h21.333v-21.333c0-5.973-2.347-11.264-6.229-15.104s-9.131-6.229-15.104-6.229-11.264 2.347-15.104 6.229-6.229 9.131-6.229 15.104 2.347 11.264 6.229 15.104 9.131 6.229 15.104 6.229zM554.667 298.667c0-29.44 11.947-56.149 31.232-75.435s45.995-31.232 75.435-31.232h213.333c29.44 0 56.149 11.947 75.435 31.232s31.232 45.995 31.232 75.435-11.947 56.149-31.232 75.435-45.995 31.232-75.435 31.232h-213.333c-29.44 0-56.149-11.947-75.435-31.232s-31.232-45.995-31.232-75.435zM640 298.667c0 5.973 2.347 11.264 6.229 15.104s9.131 6.229 15.104 6.229h213.333c5.973 0 11.264-2.347 15.104-6.229s6.229-9.131 6.229-15.104-2.347-11.264-6.229-15.104-9.131-6.229-15.104-6.229h-213.333c-5.973 0-11.264 2.347-15.104 6.229s-6.229 9.131-6.229 15.104zM661.333 64.001c5.973 0 11.264-2.347 15.104-6.229s6.229-9.131 6.229-15.104-2.347-11.264-6.229-15.104-9.131-6.229-15.104-6.229-11.264 2.347-15.104 6.229-6.229 9.131-6.229 15.104v21.333zM661.333 149.334h-64c-23.552 0-42.667-19.115-42.667-42.667v-64c0-29.44 11.947-56.149 31.232-75.435s45.995-31.232 75.435-31.232 56.149 11.947 75.435 31.232 31.232 45.995 31.232 75.435-11.947 56.149-31.232 75.435-45.995 31.232-75.435 31.232zM384 512.001c0-5.973-2.347-11.264-6.229-15.104s-9.131-6.229-15.104-6.229h-213.333c-5.973 0-11.264 2.347-15.104 6.229s-6.229 9.131-6.229 15.104 2.347 11.264 6.229 15.104 9.131 6.229 15.104 6.229h213.333c5.973 0 11.264-2.347 15.104-6.229s6.229-9.131 6.229-15.104zM469.333 512.001c0 29.44-11.947 56.149-31.232 75.435s-45.995 31.232-75.435 31.232h-213.333c-29.44 0-56.149-11.947-75.435-31.232s-31.232-45.995-31.232-75.435 11.947-56.149 31.232-75.435 45.995-31.232 75.435-31.232h213.333c29.44 0 56.149 11.947 75.435 31.232s31.232 45.995 31.232 75.435zM362.667 746.667c-5.973 0-11.264 2.347-15.104 6.229s-6.229 9.131-6.229 15.104 2.347 11.264 6.229 15.104 9.131 6.229 15.104 6.229 11.264-2.347 15.104-6.229 6.229-9.131 6.229-15.104v-21.333zM362.667 661.334h64c23.552 0 42.667 19.115 42.667 42.667v64c0 29.44-11.947 56.149-31.232 75.435s-45.995 31.232-75.435 31.232-56.149-11.947-75.435-31.232-31.232-45.995-31.232-75.435 11.947-56.149 31.232-75.435 45.995-31.232 75.435-31.232z" />
<glyph unicode="&#xe91c;" glyph-name="smartphone" d="M298.667 874.667c-35.328 0-67.413-14.379-90.496-37.504s-37.504-55.168-37.504-90.496v-682.667c0-35.328 14.379-67.413 37.504-90.496s55.168-37.504 90.496-37.504h426.667c35.328 0 67.413 14.379 90.496 37.504s37.504 55.168 37.504 90.496v682.667c0 35.328-14.379 67.413-37.504 90.496s-55.168 37.504-90.496 37.504zM298.667 789.334h426.667c11.776 0 22.4-4.736 30.165-12.501s12.501-18.389 12.501-30.165v-682.667c0-11.776-4.736-22.4-12.501-30.165s-18.389-12.501-30.165-12.501h-426.667c-11.776 0-22.4 4.736-30.165 12.501s-12.501 18.389-12.501 30.165v682.667c0 11.776 4.736 22.4 12.501 30.165s18.389 12.501 30.165 12.501zM512 106.667c23.552 0 42.667 19.115 42.667 42.667s-19.115 42.667-42.667 42.667-42.667-19.115-42.667-42.667 19.115-42.667 42.667-42.667z" />
<glyph unicode="&#xe91d;" glyph-name="terminal" d="M200.832 161.835l256 256c16.683 16.683 16.683 43.691 0 60.331l-256 256c-16.683 16.683-43.691 16.683-60.331 0s-16.683-43.691 0-60.331l225.835-225.835-225.835-225.835c-16.683-16.683-16.683-43.691 0-60.331s43.691-16.683 60.331 0zM512 64.001h341.333c23.552 0 42.667 19.115 42.667 42.667s-19.115 42.667-42.667 42.667h-341.333c-23.552 0-42.667-19.115-42.667-42.667s19.115-42.667 42.667-42.667z" />
<glyph unicode="&#xe91e;" glyph-name="mail" d="M128 579.371l359.552-251.691c14.507-10.027 33.92-10.496 48.939 0l359.509 251.691v-430.037c0-11.605-4.693-22.229-12.587-30.080s-18.475-12.587-30.080-12.587h-682.667c-11.605 0-22.229 4.693-30.080 12.587s-12.587 18.475-12.587 30.080zM42.667 662.059c0-0.427 0-0.853 0-1.28v-511.445c0-35.328 14.507-67.371 37.547-90.453s55.125-37.547 90.453-37.547h682.667c35.328 0 67.371 14.507 90.453 37.547s37.547 55.125 37.547 90.453v511.488c0 0.427 0 0.853 0 1.28-0.213 35.029-14.635 66.773-37.547 89.685-23.083 23.040-55.125 37.547-90.453 37.547h-682.667c-35.328 0-67.371-14.507-90.453-37.547-22.912-22.912-37.333-54.656-37.547-89.728zM891.477 680.363l-379.477-265.6-379.477 265.6c2.048 4.096 4.779 7.808 8.021 11.051 7.893 7.893 18.517 12.587 30.123 12.587h682.667c11.605 0 22.229-4.693 30.080-12.587 3.243-3.243 5.973-6.997 8.021-11.051z" />
</font>
</defs>
</svg>
